<svg width="25" height="25" viewBox="0 0 25 25" fill="none" xmlns="http://www.w3.org/2000/svg">
<g clip-path="url(#clip0_3:37)">
<path d="M18.7489 0.00520161L15.5069 0C11.8648 0 9.51105 2.41485 9.51105 6.15247V8.98917H6.25146C5.96979 8.98917 5.7417 9.21752 5.7417 9.49919V13.6092C5.7417 13.8909 5.97005 14.119 6.25146 14.119H9.51105V24.49C9.51105 24.7716 9.73914 24.9997 10.0208 24.9997H14.2736C14.5553 24.9997 14.7834 24.7714 14.7834 24.49V14.119H18.5946C18.8763 14.119 19.1044 13.8909 19.1044 13.6092L19.1059 9.49919C19.1059 9.36395 19.0521 9.23443 18.9567 9.13872C18.8612 9.04301 18.7312 8.98917 18.5959 8.98917H14.7834V6.58446C14.7834 5.42866 15.0588 4.84192 16.5644 4.84192L18.7483 4.84114C19.0297 4.84114 19.2578 4.61279 19.2578 4.33138V0.51496C19.2578 0.233813 19.03 0.00572178 18.7489 0.00520161Z" fill="black"/>
</g>
<defs>
<clipPath id="clip0_3:37">
<rect width="25" height="24.9997" fill="white"/>
</clipPath>
</defs>
</svg>
