<svg width="25" height="25" viewBox="0 0 25 25" fill="none" xmlns="http://www.w3.org/2000/svg">
<path d="M3.84594 16.7708V6.01672H2.19846C0.980659 6.01672 0 7.01261 0 8.22932V22.769C0 23.9873 0.980659 24.9723 2.19846 24.9723H16.7386C17.9559 24.9723 18.9556 23.9873 18.9556 22.769V21.1808H8.25592C5.83772 21.1813 3.84594 19.1895 3.84594 16.7708Z" fill="black"/>
<path d="M22.7967 0.0272217H8.25595C7.03869 0.0272217 6.04443 1.01332 6.04443 2.23058V16.7708C6.04443 17.9896 7.03923 18.9828 8.25595 18.9828H22.7967C24.0134 18.9828 25 17.9896 25 16.7708V2.23112C25 1.01278 24.0134 0.0272217 22.7967 0.0272217ZM22.4975 15.5497C22.3762 15.7738 22.1429 15.9065 21.8884 15.9065H9.42915C9.20995 15.9065 9.00381 15.8086 8.87328 15.6335C8.74274 15.4572 8.70304 15.2331 8.76613 15.0227L10.5485 9.12728C10.666 8.73948 10.9934 8.45284 11.3937 8.38702C11.794 8.32176 12.1965 8.49037 12.4315 8.82052L14.9237 12.3216C15.2593 12.7932 15.9092 12.9101 16.3862 12.5849L18.681 11.0266C18.917 10.8661 19.2069 10.8079 19.4859 10.864C19.766 10.9194 20.0113 11.0859 20.1674 11.3252L22.4676 14.8453C22.6069 15.0591 22.6183 15.3267 22.4975 15.5497Z" fill="black"/>
</svg>
