<svg width="25" height="25" viewBox="0 0 25 25" fill="none" xmlns="http://www.w3.org/2000/svg">
<g clip-path="url(#clip0_3:40)">
<path d="M12.746 25C12.6633 25 12.5805 25 12.4971 24.9996C10.5375 25.0043 8.72688 24.9546 6.96602 24.8474C5.35164 24.7491 3.87802 24.1912 2.70424 23.2341C1.57166 22.3106 0.798225 21.0619 0.405502 19.523C0.0637055 18.1833 0.0455856 16.8682 0.0282288 15.5961C0.0156402 14.6835 0.00267029 13.602 0 12.5022C0.00267029 11.3979 0.0156402 10.3164 0.0282288 9.40374C0.0455856 8.13192 0.0637055 6.8168 0.405502 5.47689C0.798225 3.93804 1.57166 2.68929 2.70424 1.76576C3.87802 0.808647 5.35164 0.250747 6.96621 0.152518C8.72707 0.0455156 10.5381 -0.00445705 12.5019 0.000311334C14.4621 -0.00388484 16.2722 0.0455156 18.033 0.152518C19.6474 0.250747 21.121 0.808647 22.2948 1.76576C23.4276 2.68929 24.2008 3.93804 24.5935 5.47689C24.9353 6.81661 24.9535 8.13192 24.9708 9.40374C24.9834 10.3164 24.9966 11.3979 24.999 12.4977V12.5022C24.9966 13.602 24.9834 14.6835 24.9708 15.5961C24.9535 16.868 24.9355 18.1831 24.5935 19.523C24.2008 21.0619 23.4276 22.3106 22.2948 23.2341C21.121 24.1912 19.6474 24.7491 18.033 24.8474C16.3467 24.95 14.6145 25 12.746 25ZM12.4971 23.0464C14.4249 23.051 16.1949 23.0024 17.9144 22.8979C19.1351 22.8237 20.1935 22.4275 21.0606 21.7205C21.862 21.0668 22.414 20.165 22.7011 19.0401C22.9856 17.9248 23.0021 16.7274 23.0179 15.5694C23.0303 14.6629 23.0433 13.589 23.0459 12.4999C23.0433 11.4107 23.0303 10.337 23.0179 9.43044C23.0021 8.27249 22.9856 7.07506 22.7011 5.95964C22.414 4.83468 21.862 3.93289 21.0606 3.27924C20.1935 2.57237 19.1351 2.17622 17.9144 2.10202C16.1949 1.99731 14.4249 1.94905 12.5017 1.95325C10.5743 1.94867 8.80413 1.99731 7.08466 2.10202C5.86395 2.17622 4.80556 2.57237 3.93848 3.27924C3.13702 3.93289 2.58503 4.83468 2.29797 5.95964C2.0134 7.07506 1.99699 8.2723 1.98116 9.43044C1.96877 10.3378 1.9558 11.4122 1.95312 12.5022C1.9558 13.5875 1.96877 14.6621 1.98116 15.5694C1.99699 16.7274 2.0134 17.9248 2.29797 19.0401C2.58503 20.165 3.13702 21.0668 3.93848 21.7205C4.80556 22.4273 5.86395 22.8235 7.08466 22.8977C8.80413 23.0024 10.5747 23.0512 12.4971 23.0464ZM12.4506 18.6035C9.08527 18.6035 6.34708 15.8655 6.34708 12.4999C6.34708 9.13442 9.08527 6.39642 12.4506 6.39642C15.8161 6.39642 18.5541 9.13442 18.5541 12.4999C18.5541 15.8655 15.8161 18.6035 12.4506 18.6035ZM12.4506 8.34955C10.1622 8.34955 8.30021 10.2115 8.30021 12.4999C8.30021 14.7884 10.1622 16.6503 12.4506 16.6503C14.7392 16.6503 16.601 14.7884 16.601 12.4999C16.601 10.2115 14.7392 8.34955 12.4506 8.34955ZM19.2377 4.44329C18.4288 4.44329 17.7729 5.09904 17.7729 5.90814C17.7729 6.71724 18.4288 7.37299 19.2377 7.37299C20.0468 7.37299 20.7026 6.71724 20.7026 5.90814C20.7026 5.09904 20.0468 4.44329 19.2377 4.44329Z" fill="black"/>
</g>
<defs>
<clipPath id="clip0_3:40">
<rect width="25" height="25" fill="white"/>
</clipPath>
</defs>
</svg>
