<svg width="25" height="25" viewBox="0 0 25 25" fill="none" xmlns="http://www.w3.org/2000/svg">
<g clip-path="url(#clip0_3:76)">
<path d="M2.39951 8.73338C2.71575 8.95654 3.66904 9.61933 5.25941 10.7214C6.84983 11.8235 8.0682 12.672 8.91457 13.2672C9.00756 13.3324 9.20511 13.4742 9.50733 13.6928C9.80961 13.9115 10.0608 14.0882 10.2606 14.223C10.4606 14.3578 10.7024 14.509 10.9862 14.6763C11.2699 14.8436 11.5373 14.9693 11.7884 15.0526C12.0396 15.1365 12.2721 15.1781 12.486 15.1781H12.5H12.5141C12.728 15.1781 12.9605 15.1365 13.2117 15.0526C13.4627 14.9693 13.7304 14.8434 14.0139 14.6763C14.2975 14.5088 14.5392 14.3577 14.7392 14.223C14.9392 14.0882 15.1902 13.9115 15.4926 13.6928C15.7947 13.474 15.9925 13.3324 16.0855 13.2672C16.941 12.672 19.1176 11.1606 22.6145 8.73308C23.2934 8.25896 23.8606 7.68686 24.3162 7.01718C24.7722 6.3478 25 5.64558 25 4.91091C25 4.29698 24.779 3.77145 24.3372 3.33437C23.8954 2.89718 23.3722 2.67871 22.7678 2.67871H2.23205C1.51595 2.67871 0.964865 2.92049 0.57889 3.40405C0.192963 3.8877 0 4.49224 0 5.21763C0 5.80355 0.255851 6.43849 0.767309 7.12204C1.27872 7.80565 1.82296 8.34281 2.39951 8.73338Z" fill="black"/>
<path d="M23.6047 10.2259C20.5544 12.2904 18.2383 13.8949 16.6574 15.039C16.1273 15.4295 15.6972 15.7343 15.367 15.9527C15.0367 16.1713 14.5975 16.3945 14.0486 16.6223C13.5 16.8504 12.9887 16.9641 12.5143 16.9641H12.5H12.486C12.0117 16.9641 11.5001 16.8504 10.9514 16.6223C10.4028 16.3945 9.96327 16.1713 9.6331 15.9527C9.30303 15.7343 8.87283 15.4295 8.34275 15.039C7.0871 14.1183 4.77594 12.5137 1.40918 10.2259C0.878913 9.8727 0.409234 9.46786 0 9.01221V20.0889C0 20.7031 0.21847 21.2284 0.655654 21.6655C1.09274 22.1028 1.61832 22.3213 2.23219 22.3213H22.768C23.3817 22.3213 23.9072 22.1028 24.3444 21.6655C24.7816 21.2282 25 20.7032 25 20.0889V9.01221C24.6 9.45843 24.1351 9.86327 23.6047 10.2259Z" fill="black"/>
</g>
<defs>
<clipPath id="clip0_3:76">
<rect width="25" height="25" fill="white"/>
</clipPath>
</defs>
</svg>
