<svg width="25" height="25" viewBox="0 0 25 25" fill="none" xmlns="http://www.w3.org/2000/svg">
<path d="M12.5 0C7.64619 0 3.69751 4.01074 3.69751 8.94038V16.0599C3.69751 20.9895 7.64619 25 12.5 25C17.3534 25 21.3024 21.0017 21.3024 16.0872V8.94038C21.3024 4.01074 17.3534 0 12.5 0ZM19.6467 16.0872C19.6467 20.0889 16.4409 23.3444 12.5 23.3444C8.55928 23.3444 5.35317 20.0765 5.35317 16.0596V8.94038C5.35317 4.92354 8.55928 1.65562 12.5 1.65562C16.4409 1.65562 19.6467 4.92354 19.6467 8.94038V16.0872Z" fill="black"/>
<path d="M12.5002 6.84326C12.043 6.84326 11.6724 7.21387 11.6724 7.67109V10.5685C11.6724 11.0257 12.043 11.3963 12.5002 11.3963C12.9574 11.3963 13.328 11.0257 13.328 10.5685V7.67109C13.328 7.21387 12.9574 6.84326 12.5002 6.84326Z" fill="black"/>
</svg>
