<svg width="25" height="25" viewBox="0 0 25 25" fill="none" xmlns="http://www.w3.org/2000/svg">
<g clip-path="url(#clip0_10:277)">
<path d="M16.9232 11.7309L1.53869 0.19252C1.25023 -0.0267082 0.857928 -0.0613232 0.532931 0.102137C0.206011 0.265597 0.000244141 0.598286 0.000244141 0.961744V24.0384C0.000244141 24.4019 0.206011 24.7346 0.531008 24.8981C0.667545 24.9654 0.815621 25 0.961773 25C1.16562 25 1.36946 24.9346 1.53869 24.8077L16.9232 13.2693C17.1655 13.0886 17.3078 12.802 17.3078 12.5001C17.3078 12.1982 17.1655 11.9116 16.9232 11.7309Z" fill="black"/>
<path d="M24.0384 0.000244141H22.1153C21.5846 0.000244141 21.1538 0.431009 21.1538 0.961772V24.0384C21.1538 24.5692 21.5846 25 22.1153 25H24.0384C24.5692 25 24.9999 24.5692 24.9999 24.0384V0.961772C24.9999 0.431009 24.5692 0.000244141 24.0384 0.000244141Z" fill="black"/>
</g>
<defs>
<clipPath id="clip0_10:277">
<rect width="25" height="25" fill="white"/>
</clipPath>
</defs>
</svg>
