<svg width="25" height="25" viewBox="0 0 25 25" fill="none" xmlns="http://www.w3.org/2000/svg">
<g clip-path="url(#clip0_3:401)">
<path d="M10.3522 14.6478C7.96595 12.2615 7.42715 9.87534 7.3056 8.9193C7.27164 8.65496 7.36261 8.38986 7.55172 8.20206L9.48276 6.27189C9.76681 5.98801 9.81722 5.54559 9.60431 5.20508L6.52974 0.430943C6.29419 0.0538947 5.81053 -0.0821856 5.41293 0.116719L0.477154 2.44129C0.155627 2.59961 -0.03349 2.94122 0.00301576 3.29775C0.261636 5.75465 1.33276 11.7943 7.2681 17.7301C13.2034 23.6659 19.2422 24.7365 21.7004 24.9952C22.057 25.0317 22.3986 24.8426 22.5569 24.521L24.8815 19.5853C25.0796 19.1885 24.9444 18.7062 24.569 18.4702L19.7948 15.3965C19.4545 15.1833 19.0121 15.2334 18.728 15.5171L16.7978 17.4482C16.61 17.6373 16.3449 17.7283 16.0806 17.6943C15.1246 17.5728 12.7384 17.034 10.3522 14.6478Z" fill="black"/>
<path d="M19.8276 13.362C19.3515 13.362 18.9655 12.9761 18.9655 12.5C18.9615 8.93082 16.0691 6.03848 12.5 6.03444C12.0239 6.03444 11.6379 5.64848 11.6379 5.17237C11.6379 4.69626 12.0239 4.3103 12.5 4.3103C17.021 4.31529 20.6847 7.979 20.6897 12.5C20.6897 12.9761 20.3037 13.362 19.8276 13.362Z" fill="black"/>
<path d="M24.1379 13.3621C23.6618 13.3621 23.2759 12.9761 23.2759 12.5C23.2692 6.55141 18.4486 1.73079 12.5 1.72414C12.0239 1.72414 11.6379 1.33818 11.6379 0.862069C11.6379 0.385961 12.0239 0 12.5 0C19.4004 0.00760167 24.9924 5.59959 25 12.5C25 12.7286 24.9092 12.9479 24.7475 13.1096C24.5858 13.2712 24.3666 13.3621 24.1379 13.3621Z" fill="black"/>
</g>
<defs>
<clipPath id="clip0_3:401">
<rect width="25" height="25" fill="white"/>
</clipPath>
</defs>
</svg>
