<svg width="31" height="31" viewBox="0 0 31 31" fill="none" xmlns="http://www.w3.org/2000/svg">
<g clip-path="url(#clip0_3:310)">
<path d="M19.9821 14.438L13.7421 9.90196C13.5131 9.73596 13.2091 9.71096 12.9581 9.83996C12.7051 9.96796 12.5471 10.228 12.5471 10.509V19.578C12.5471 19.862 12.7051 20.121 12.9581 20.249C13.0651 20.303 13.1821 20.33 13.3001 20.33C13.4541 20.33 13.6101 20.281 13.7421 20.184L19.9821 15.652C20.1791 15.507 20.2941 15.283 20.2941 15.045C20.2951 14.803 20.1771 14.58 19.9821 14.438Z" fill="black"/>
<path d="M15.026 0.00195312C6.726 0.00195312 0 6.72795 0 15.028C0 23.325 6.726 30.049 15.026 30.049C23.324 30.049 30.051 23.324 30.051 15.028C30.052 6.72795 23.324 0.00195312 15.026 0.00195312ZM15.026 27.542C8.114 27.542 2.51 21.941 2.51 15.028C2.51 8.11795 8.114 2.50995 15.026 2.50995C21.937 2.50995 27.54 8.11695 27.54 15.028C27.541 21.941 21.937 27.542 15.026 27.542Z" fill="black"/>
</g>
<defs>
<clipPath id="clip0_3:310">
<rect width="30.051" height="30.051" fill="white"/>
</clipPath>
</defs>
</svg>
