<svg width="25" height="25" viewBox="0 0 25 25" fill="none" xmlns="http://www.w3.org/2000/svg">
<path d="M23.1608 4.1666C23.1608 6.03638 21.6453 7.55215 19.7755 7.55215C17.9057 7.55215 16.3901 6.03638 16.3901 4.1666C16.3901 2.29702 17.9057 0.78125 19.7755 0.78125C21.6453 0.78125 23.1608 2.29702 23.1608 4.1666Z" fill="black"/>
<path d="M19.7755 8.3334C17.4775 8.3334 15.6089 6.46458 15.6089 4.1666C15.6089 1.86882 17.4775 0 19.7755 0C22.0735 0 23.9421 1.86882 23.9421 4.1666C23.9421 6.46458 22.0735 8.3334 19.7755 8.3334ZM19.7755 1.5625C18.3391 1.5625 17.1714 2.73132 17.1714 4.1666C17.1714 5.60207 18.3391 6.7709 19.7755 6.7709C21.2119 6.7709 22.3796 5.60207 22.3796 4.1666C22.3796 2.73132 21.2119 1.5625 19.7755 1.5625Z" fill="black"/>
<path d="M23.1608 20.8334C23.1608 22.703 21.6453 24.2188 19.7755 24.2188C17.9057 24.2188 16.3901 22.703 16.3901 20.8334C16.3901 18.9636 17.9057 17.4479 19.7755 17.4479C21.6453 17.4479 23.1608 18.9636 23.1608 20.8334Z" fill="black"/>
<path d="M19.7755 25C17.4775 25 15.6089 23.1312 15.6089 20.8334C15.6089 18.5354 17.4775 16.6666 19.7755 16.6666C22.0735 16.6666 23.9421 18.5354 23.9421 20.8334C23.9421 23.1312 22.0735 25 19.7755 25ZM19.7755 18.2291C18.3391 18.2291 17.1714 19.3979 17.1714 20.8334C17.1714 22.2687 18.3391 23.4375 19.7755 23.4375C21.2119 23.4375 22.3796 22.2687 22.3796 20.8334C22.3796 19.3979 21.2119 18.2291 19.7755 18.2291Z" fill="black"/>
<path d="M8.57754 12.5C8.57754 14.3698 7.06177 15.8853 5.19199 15.8853C3.32241 15.8853 1.80664 14.3698 1.80664 12.5C1.80664 10.6302 3.32241 9.11462 5.19199 9.11462C7.06177 9.11462 8.57754 10.6302 8.57754 12.5Z" fill="black"/>
<path d="M5.19199 16.6666C2.89421 16.6666 1.02539 14.798 1.02539 12.5C1.02539 10.202 2.89421 8.33337 5.19199 8.33337C7.48997 8.33337 9.35879 10.202 9.35879 12.5C9.35879 14.798 7.48997 16.6666 5.19199 16.6666ZM5.19199 9.89587C3.75557 9.89587 2.58789 11.0645 2.58789 12.5C2.58789 13.9354 3.75557 15.1041 5.19199 15.1041C6.62861 15.1041 7.79629 13.9354 7.79629 12.5C7.79629 11.0645 6.62861 9.89587 5.19199 9.89587Z" fill="black"/>
<path d="M7.65135 12.0001C7.28876 12.0001 6.93666 11.8115 6.74498 11.4741C6.46059 10.9751 6.63569 10.3386 7.13465 10.0531L16.8001 4.54275C17.2991 4.25627 17.9356 4.43136 18.2211 4.93223C18.5055 5.43119 18.3304 6.06768 17.8314 6.35321L8.16576 11.8635C8.00325 11.9562 7.82625 12.0001 7.65135 12.0001Z" fill="black"/>
<path d="M17.316 20.5939C17.1409 20.5939 16.9639 20.55 16.8014 20.4573L7.13572 14.947C6.63676 14.6626 6.46186 14.0261 6.74624 13.526C7.02948 13.0261 7.66692 12.8501 8.16703 13.1365L17.8327 18.6469C18.3317 18.9313 18.5066 19.5678 18.2222 20.0679C18.0295 20.4053 17.6774 20.5939 17.316 20.5939Z" fill="black"/>
</svg>
