<svg width="25" height="25" viewBox="0 0 25 25" fill="none" xmlns="http://www.w3.org/2000/svg">
<g clip-path="url(#clip0_10:220)">
<path d="M16.0131 9.60089C15.7369 9.60089 15.4437 9.38772 15.3581 9.12506L12.6546 0.804833C12.569 0.542106 12.431 0.542106 12.3454 0.804833L9.64234 9.12506C9.55678 9.38778 9.26358 9.60089 8.98737 9.60089H0.238835C-0.0373731 9.60089 -0.0804018 9.7325 0.143236 9.89514L7.22055 15.0365C7.44419 15.1991 7.55629 15.5438 7.47072 15.8066L4.76774 24.1263C4.68217 24.389 4.79427 24.4705 5.01791 24.3079L12.0952 19.1666C12.3189 19.004 12.6812 19.004 12.9048 19.1666L19.9821 24.3084C20.2058 24.4711 20.3179 24.3895 20.2323 24.1268L17.5293 15.8071C17.4437 15.5443 17.5558 15.1996 17.7794 15.037L24.8567 9.89563C25.0804 9.733 25.0374 9.60139 24.7611 9.60139H16.0131V9.60089Z" fill="#010002"/>
</g>
<defs>
<clipPath id="clip0_10:220">
<rect width="25" height="25" fill="white"/>
</clipPath>
</defs>
</svg>
