<svg width="25" height="25" viewBox="0 0 25 25" fill="none" xmlns="http://www.w3.org/2000/svg">
<path d="M14.5283 0.915404C14.2383 0.77707 13.8967 0.813737 13.6467 1.0154L5.54 7.5004H1.66667C0.748333 7.5004 0 8.24874 0 9.16707V15.8337C0 16.7537 0.748333 17.5004 1.66667 17.5004H5.54L13.645 23.9854C13.7967 24.1054 13.9817 24.1671 14.1667 24.1671C14.29 24.1671 14.4133 24.1387 14.5283 24.0837C14.8167 23.9454 15 23.6537 15 23.3337V1.66707C15 1.34707 14.8167 1.0554 14.5283 0.915404Z" fill="black"/>
<path d="M19.2183 6.60712C18.89 6.28379 18.3633 6.28879 18.04 6.61379C17.7167 6.94212 17.72 7.46879 18.0467 7.79379C19.3067 9.03712 20 10.7088 20 12.5005C20 14.2921 19.3067 15.9638 18.0467 17.2071C17.72 17.5288 17.7167 18.0571 18.04 18.3855C18.2033 18.5505 18.4183 18.6321 18.6317 18.6321C18.8433 18.6321 19.055 18.5521 19.2183 18.3905C20.7983 16.8355 21.6667 14.7421 21.6667 12.5005C21.6667 10.2588 20.7983 8.16545 19.2183 6.60712Z" fill="black"/>
<path d="M21.5698 4.25885C21.2415 3.93385 20.7148 3.93719 20.3898 4.26385C20.0665 4.59052 20.0698 5.11885 20.3948 5.44219C22.2898 7.32052 23.3331 9.82719 23.3331 12.5005C23.3331 15.1739 22.2898 17.6789 20.3948 19.5572C20.0698 19.8822 20.0665 20.4105 20.3898 20.7372C20.5548 20.9005 20.7681 20.9822 20.9815 20.9822C21.1931 20.9822 21.4065 20.9022 21.5698 20.7405C23.7831 18.5489 24.9998 15.6222 24.9998 12.5005C24.9998 9.37885 23.7831 6.45219 21.5698 4.25885Z" fill="black"/>
</svg>
