<svg width="25" height="25" viewBox="0 0 25 25" fill="none" xmlns="http://www.w3.org/2000/svg">
<g clip-path="url(#clip0_3:43)">
<path d="M24.4467 6.17597L24.4779 6.38014C24.1759 5.30827 23.3602 4.48118 22.3238 4.18014L22.3019 4.17493C20.3529 3.64577 12.5102 3.64577 12.5102 3.64577C12.5102 3.64577 4.68732 3.63535 2.71857 4.17493C1.66232 4.48118 0.845652 5.30827 0.548777 6.35827L0.543568 6.38014C-0.184557 10.1833 -0.189765 14.7531 0.57586 18.8249L0.543568 18.6187C0.845652 19.6906 1.66128 20.5176 2.69773 20.8187L2.71961 20.8239C4.66648 21.3541 12.5113 21.3541 12.5113 21.3541C12.5113 21.3541 20.3331 21.3541 22.3029 20.8239C23.3602 20.5176 24.1769 19.6906 24.4738 18.6406L24.479 18.6187C24.8102 16.8499 24.9998 14.8145 24.9998 12.7353C24.9998 12.6593 24.9998 12.5822 24.9988 12.5051C24.9998 12.4343 24.9998 12.3499 24.9998 12.2656C24.9998 10.1853 24.8102 8.14993 24.4467 6.17597ZM10.0082 16.3031V8.70618L16.5352 12.5104L10.0082 16.3031Z" fill="black"/>
</g>
<defs>
<clipPath id="clip0_3:43">
<rect width="25" height="25" fill="white"/>
</clipPath>
</defs>
</svg>
